<svg width="34" height="34" viewBox="0 0 34 34" fill="none" xmlns="http://www.w3.org/2000/svg">
<path d="M33.8979 31.5561L28.7693 26.4275C25.3915 23.0497 25.4999 17.5269 25.4999 12.7499C25.4999 9.34146 24.1696 6.14547 21.7642 3.73573C19.3587 1.32599 16.1542 0 12.7499 0C9.34571 0 6.14122 1.33024 3.73573 3.73573C1.32599 6.14122 0 9.34146 0 12.7499C0 16.1542 1.33024 19.3587 3.73573 21.7642C6.14122 24.1739 9.34146 25.4999 12.7499 25.4999C17.5251 25.4999 23.043 25.3923 26.4202 28.7682L31.5519 33.8979C31.5842 33.9302 31.6227 33.9559 31.6649 33.9734C31.7072 33.991 31.7526 34 31.7984 34C31.8441 34 31.8895 33.991 31.9318 33.9734C31.9741 33.9559 32.0125 33.9302 32.0449 33.8979L33.8979 32.0491C33.9302 32.0167 33.9559 31.9783 33.9734 31.936C33.991 31.8937 34 31.8484 34 31.8026C34 31.7568 33.991 31.7115 33.9734 31.6692C33.9559 31.6269 33.9302 31.5885 33.8979 31.5561ZM19.4819 19.4819C17.6799 21.2797 15.2914 22.2699 12.7499 22.2699C10.2085 22.2699 7.81997 21.2797 6.01797 19.4819C4.22023 17.6799 3.22999 15.2914 3.22999 12.7499C3.22999 10.2085 4.22023 7.81572 6.01797 6.01797C7.81997 4.22023 10.2085 3.22999 12.7499 3.22999C15.2914 3.22999 17.6842 4.21598 19.4819 6.01797C21.2797 7.81997 22.2699 10.2085 22.2699 12.7499C22.2699 15.2914 21.2797 17.6842 19.4819 19.4819Z" fill="black"/>
</svg>
