<svg width="53" height="53" viewBox="0 0 53 53" fill="none" xmlns="http://www.w3.org/2000/svg">
<path d="M19.7408 41.3069C15.5207 41.3069 11.5904 40.0697 8.28125 37.9414C10.2384 38.1791 12.2232 38.0284 14.122 37.4978C16.0208 36.9671 17.7963 36.0671 19.3467 34.8492C17.7862 34.8206 16.2738 34.3042 15.0218 33.3724C13.7698 32.4406 12.8409 31.1401 12.3656 29.6536C12.8227 29.743 13.2914 29.7894 13.7701 29.7894C14.4524 29.7894 15.1149 29.6966 15.746 29.531C14.0543 29.1884 12.5331 28.2717 11.4399 26.9361C10.3466 25.6005 9.74859 23.9281 9.74703 22.2021V22.1044C10.7834 22.6818 11.9433 23.0021 13.1291 23.0385C12.1044 22.3558 11.2645 21.4302 10.6843 20.3442C10.104 19.2582 9.80136 18.0456 9.80334 16.8143C9.80334 15.4496 10.176 14.161 10.817 13.0579C12.694 15.3674 15.0358 17.2561 17.6903 18.6015C20.3449 19.9469 23.2528 20.7188 26.2251 20.8671C25.8527 19.2644 26.019 17.5836 26.6984 16.0849C27.3778 14.5863 28.5323 13.3535 29.9832 12.5773C31.4341 11.8011 33.1004 11.5249 34.7241 11.7914C36.3478 12.058 37.8383 12.8524 38.9649 14.0517C40.6383 13.7205 42.2433 13.1078 43.7118 12.2397C43.1531 13.9705 41.9863 15.4403 40.4274 16.3771C41.9088 16.2002 43.3557 15.8039 44.7204 15.2011C43.714 16.7003 42.4515 18.0106 40.9905 19.0718C41.0038 19.3914 41.0137 19.7144 41.0137 20.0374C41.0121 29.9119 33.491 41.3086 19.7408 41.3069Z" fill="white"/>
</svg>
